<?xml version="1.0" standalone="no"?>
<!DOCTYPE svg PUBLIC "-//W3C//DTD SVG 20010904//EN"
 "http://www.w3.org/TR/2001/REC-SVG-20010904/DTD/svg10.dtd">
<svg version="1.0" xmlns="http://www.w3.org/2000/svg"
 width="955.000000pt" height="468.000000pt" viewBox="0 0 955.000000 468.000000"
 preserveAspectRatio="xMidYMid meet">

<g transform="translate(0.000000,468.000000) scale(0.100000,-0.100000)"
fill="#fffbd3" stroke="none">
<path d="M6430 3647 c25 -65 53 -136 67 -167 8 -19 18 -44 23 -55 4 -11 12
-31 18 -45 9 -20 43 -115 79 -220 47 -139 125 -556 110 -594 -6 -15 -325 -16
-3367 -16 l-3360 0 0 -230 0 -230 3360 0 c3049 0 3361 -1 3367 -16 7 -18 -30
-276 -56 -389 -33 -145 -117 -391 -188 -555 -8 -19 -19 -44 -23 -55 -4 -11
-15 -36 -23 -55 -9 -19 -14 -36 -12 -38 3 -3 179 68 280 114 52 23 267 115
330 141 33 14 80 34 105 45 25 11 59 26 75 33 17 7 46 19 65 28 19 8 132 56
250 107 118 51 239 103 268 116 29 13 55 24 57 24 2 0 28 11 57 24 29 13 87
38 128 56 41 18 95 41 120 52 25 11 60 26 78 34 17 8 47 20 65 28 17 8 52 23
77 34 25 11 90 39 145 62 105 45 156 67 243 106 29 13 55 24 57 24 2 0 28 11
57 24 77 35 134 60 218 96 41 18 99 43 128 56 29 13 55 24 57 24 4 0 68 28
170 75 28 13 59 26 70 30 16 6 17 8 5 12 -8 3 -42 18 -75 33 -33 15 -76 34
-95 43 -19 8 -55 24 -80 35 -25 11 -99 43 -165 72 -66 29 -144 63 -173 76 -29
13 -55 24 -57 24 -2 0 -34 14 -70 30 -36 17 -68 30 -70 30 -2 0 -28 11 -57 24
-29 13 -87 38 -128 56 -41 18 -99 43 -128 56 -29 13 -55 24 -57 24 -2 0 -28
11 -57 24 -29 13 -87 38 -128 56 -41 18 -99 43 -128 56 -29 13 -55 24 -57 24
-2 0 -28 11 -57 24 -46 21 -117 52 -235 102 -18 8 -48 20 -65 28 -179 76 -263
113 -302 132 -16 8 -33 14 -37 14 -5 0 -33 11 -64 25 -30 14 -80 36 -110 50
-31 14 -58 25 -60 25 -2 0 -30 12 -62 26 -75 34 -88 39 -278 119 -88 37 -178
76 -200 85 -114 51 -115 51 -105 27z"/>
</g>
</svg>
