<svg xmlns="http://www.w3.org/2000/svg"><g clip-path="url(#a)"><path fill="#000" fill-rule="evenodd" d="M14.5 0C22.508 0 29 6.492 29 14.5S22.508 29 14.5 29 0 22.508 0 14.5 6.492 0 14.5 0Zm-2.01 7.203h1.772c.323 0 .59.266.59.59v6.83h6.232c.326 0 .59.266.59.59v1.772c0 .326-.266.59-.59.59h-9.187V7.793c0-.326.267-.59.592-.59Zm2.01-3.91c6.19 0 11.208 5.017 11.208 11.207S20.69 25.708 14.5 25.708 3.292 20.69 3.292 14.5C3.292 8.312 8.31 3.292 14.5 3.292Z" clip-rule="evenodd"/></g><defs><clipPath id="a"><rect width="29" height="29"/></clipPath></defs></svg>