<svg xmlns="http://www.w3.org/2000/svg" fill="none" viewBox="0 0 26 29">
  <g clip-path="url(#a)">
    <path fill-rule="evenodd" d="m19.8 6.2-.2 1.3v.8c.3 0 .5.1.6.3.1.3.2.6.1 1a4.5 4.5 0 0 1-.3 1.2c-.2.7-.7 1.3-1.1 1.3l-.2.5c-.3.9-.4 1.6-1 2.2a6 6 0 0 1-2 1.7c-1 .4-1.9.6-2.7.6-.7 0-1.6-.2-2.5-.7a6.3 6.3 0 0 1-2-1.5 7 7 0 0 1-1.2-2.5L7 12c-.4 0-.8-.4-1-.9a4 4 0 0 1-.4-1.3c0-.5 0-1 .2-1.2 0-.2.3-.3.5-.4v-.7L6.2 6C5-1.6 21-2.4 19.8 6.2Zm-.9 15.2V20c-1-.1-2.2 0-3.2.3-.9.3-1.7.8-2.2 1.5v6.4A12.2 12.2 0 0 1 16 27c1-.3 2-.4 3-.4v-5.3Zm-6.4 6.7v-6.3a4.1 4.1 0 0 0-2.2-1.6c-1-.3-2.1-.4-3.1-.2v6.8a10.7 10.7 0 0 1 3 .3 8 8 0 0 1 2.3 1Zm7.5 0a15.5 15.5 0 0 0-3-.3c-1.2 0-2.4.7-3.7 1.1a.5.5 0 0 1-.3.1.6.6 0 0 1-.3 0c-1.2-.5-2.5-1.2-3.8-1.2L6 28l.2-2.8H0c.5-2 .4-3.2 1.3-5 .4-.8 1-1.2 1.9-1.8 1.5-1 3.6-1.7 5.6-2.5-.3 1.6.3 2.7 1.3 3.3a9 9 0 0 1 1.7.7c1 .1 2 0 2.8-.1a6.7 6.7 0 0 1 1.1-.4c1.4-.7 2.3-2 1.5-3.5 2 .8 4 1.5 5.6 2.5 1 .6 1.5 1 1.9 1.8 1 1.8.8 3 1.3 5h-6V28Zm-8.7-13.6a.2.2 0 0 1 0-.4.2.2 0 0 1 .3 0c.5.4 1 .6 1.4.6.5 0 .9-.2 1.3-.6a.2.2 0 0 1 .3.4c-.5.5-1 .7-1.6.7-.5 0-1.1-.2-1.7-.7Zm1-1.6a.2.2 0 0 1 0-.3.2.2 0 0 1 .3 0l.4.1.3-.1a.2.2 0 0 1 .4 0 .2.2 0 0 1 0 .3 1 1 0 0 1-.7.3 1 1 0 0 1-.7-.3Zm-1.5-2a.4.4 0 1 1-.9-.2 2.4 2.4 0 0 0-.7.2s-.2 0-.2-.2v-.3l1.1-.2c.4 0 .7 0 1 .2l.2.3-.3.2a4.7 4.7 0 0 0-.2 0Zm4.4-.1a.4.4 0 1 0 .8-.1l.7.1.3-.1-.1-.3a3.2 3.2 0 0 0-2 0c-.2 0-.2.1-.2.3 0 .1.1.2.3.1h.2Zm2.1-1.6c.1.1.1.3 0 .4a.2.2 0 0 1-.3 0c-.3-.3-1-.1-1.6 0h-.9a.2.2 0 0 1 0-.4l.8-.1c.7-.1 1.5-.3 2 .1ZM9 9.7a.2.2 0 0 1-.4 0 .2.2 0 0 1 0-.4c.6-.4 1.4-.3 2.1-.2l.8.1a.2.2 0 0 1 0 .5h-.9c-.6-.2-1.3-.3-1.6 0Zm-2.1.2a.1.1 0 0 1 .2.2.5.5 0 0 0 0 .2.4.4 0 0 0 0 .2.1.1 0 0 1 0 .2.1.1 0 0 1-.2 0 .6.6 0 0 1-.1-.4.8.8 0 0 1 0-.4Zm11.9.1a.1.1 0 0 1 0-.1.1.1 0 0 1 .2 0 .8.8 0 0 1 .1.4.7.7 0 0 1 0 .4.1.1 0 0 1-.3 0 .1.1 0 0 1 0-.2.4.4 0 0 0 0-.2.5.5 0 0 0 0-.2Zm.4-1.4-.7.5-.3-2A10.1 10.1 0 0 1 7.8 7l-.4 2-.6-.4a.2.2 0 0 1-.3 0l-.2.1c-.1.2-.2.5-.1 1 0 .3.1.7.3 1 .2.5.5.8.7.7a.2.2 0 0 1 .3.1l.2.6a6 6 0 0 0 1.2 2.4 5.8 5.8 0 0 0 1.9 1.4c.7.4 1.5.6 2.2.6.8 0 1.6-.2 2.4-.6a5.5 5.5 0 0 0 2-1.5 6 6 0 0 0 .8-2l.2-.7a.2.2 0 0 1 .3-.2c.3 0 .7-.4.9-1a4 4 0 0 0 .2-1V9c-.1-.1-.2-.2-.3-.1a.2.2 0 0 1-.3-.2Z" clip-rule="evenodd"/>
  </g>
  <defs>
    <clipPath id="a">
      <rect width="26" height="29" fill="#fff" rx="13"/>
    </clipPath>
  </defs>
</svg>
