<svg xmlns="http://www.w3.org/2000/svg" width="393.333" height="217.333" version="1.0" viewBox="0 0 295 163"><path d="M37 1.9c-7.8 2.4-15.5 9.7-18.5 17.4-2.3 6-1.7 16.5 1.3 22.2 8.9 17.3 31.1 20.8 44.8 7.1 8-8 10.2-17.2 6.8-28.6-2.1-7-9.8-14.9-16.8-17.3C49.5.9 41.4.6 37 1.9zM240.7 2.4C229.9 6.3 222 17.5 222 28.9c0 7.6 2.7 14 8.4 19.7 11.2 11.1 27.8 11.4 38.9.6 5.6-5.4 7.9-10.5 8.5-18.7.6-9.3-2.1-15.8-8.9-21.9C261 1.5 250-.9 240.7 2.4zM139.5 14.3c-12.1 4.1-21.9 13.3-25.5 24.3-3.3 9.9-2.6 20.6 2 29.2 3.8 7.1 10.7 13.9 17.8 17.4 4.1 2 6.2 2.3 15.7 2.3 10.2 0 11.4-.2 16.8-3 6.8-3.4 14.3-11.1 17.8-18.2 2-4.1 2.3-6.3 2.4-15.3 0-9.5-.3-11-2.7-16.1-6.3-12.6-18.9-21-32.7-21.6-4.5-.2-9.2.3-11.6 1zM31.3 65.9c-14.7 5.4-26.4 19.5-29.9 36-.7 3.6-1.4 7.4-1.4 8.3 0 1.7 2.8 1.8 44.8 1.8h44.8l-.7-6.3c-2-16.6-11.6-30.4-26.4-38-5.3-2.7-7.1-3.1-16-3.4-8-.3-11 .1-15.2 1.6zM237 65.7c-5.9 2-14.1 7.5-18.1 12.1-7.7 8.8-12.9 20.8-12.9 29.8v4.4h89.2l-.6-4.8c-2.9-20.2-15.7-36.7-32.5-41.6-6.9-2-19.2-2-25.1.1zM136.1 98.6c-24 6.4-42.7 29.4-45.9 56.1l-.8 7.3h120.2l-.8-6.7c-2.7-23.1-15.9-42.8-34.9-52.2-12.2-6-26-7.7-37.8-4.5z"/></svg>